<svg width="37" height="25" viewBox="0 0 37 25" fill="none" xmlns="http://www.w3.org/2000/svg">
<path d="M15.74 13.2312L15.737 12.523C15.737 9.57971 15.9093 6.8964 16.169 5.14718L16.3964 4.05942C16.523 3.48333 16.6893 2.82737 16.8628 2.49251C17.4977 1.26761 18.7391 0.509764 20.0678 0.509764L20.1835 0.509764C21.0496 0.538403 22.8692 1.29846 22.8692 1.32489C25.7972 2.55343 31.446 6.2612 34.0549 8.90454L34.813 9.69814C35.0116 9.91322 35.2346 10.1678 35.3731 10.3662C35.8356 10.9786 36.0669 11.7365 36.0669 12.4943C36.0669 13.3403 35.8073 14.1268 35.3164 14.7701L34.5374 15.6107L34.3629 15.7901C31.9957 18.3567 25.8147 22.5535 22.5812 23.8378L22.0931 24.0249C21.5056 24.2355 20.6825 24.4866 20.1835 24.5098C19.5485 24.5098 18.942 24.3622 18.3638 24.0714C17.6417 23.6638 17.0657 23.0205 16.7471 22.2627C16.5442 21.7383 16.2257 20.1632 16.2257 20.1345C15.9337 18.5463 15.7643 16.0401 15.74 13.2312ZM0.0668956 12.5089C0.0668957 10.8324 1.41306 9.47308 3.0734 9.47308L10.4719 10.1274C11.7744 10.1274 12.8304 11.1937 12.8304 12.5089C12.8304 13.8263 11.7744 14.8904 10.4719 14.8904L3.0734 15.5447C1.41306 15.5447 0.0668954 14.1854 0.0668956 12.5089Z" fill="white"/>
</svg>
