<svg width="37" height="25" viewBox="0 0 37 25" fill="none" xmlns="http://www.w3.org/2000/svg">
<path d="M20.4353 11.7884L20.4383 12.4965C20.4383 15.4398 20.266 18.1231 20.0063 19.8724L19.7789 20.9601C19.6523 21.5362 19.486 22.1922 19.3125 22.527C18.6776 23.7519 17.4362 24.5098 16.1075 24.5098H15.9918C15.1257 24.4811 13.3061 23.7211 13.3061 23.6946C10.3781 22.4661 4.72931 18.7583 2.12039 16.115L1.36226 15.3214C1.16373 15.1063 0.940679 14.8518 0.802208 14.6533C0.339668 14.0409 0.108398 13.283 0.108398 12.5252C0.108398 11.6792 0.368032 10.8927 0.858935 10.2494L1.63785 9.40882L1.81238 9.22943C4.17962 6.66288 10.3606 2.46607 13.5941 1.1817L14.0822 0.994608C14.6697 0.784045 15.4928 0.532898 15.9918 0.509766C16.6267 0.509766 17.2333 0.65737 17.8115 0.948172C18.5336 1.35574 19.1096 1.99903 19.4282 2.75687C19.6311 3.2812 19.9496 4.85638 19.9496 4.88502C20.2416 6.47325 20.411 8.9794 20.4353 11.7884ZM36.1084 12.5106C36.1084 14.1872 34.7622 15.5464 33.1019 15.5464L25.7034 14.8921C24.4009 14.8921 23.3449 13.8259 23.3449 12.5106C23.3449 11.1932 24.4009 10.1292 25.7034 10.1292L33.1019 9.47485C34.7622 9.47485 36.1084 10.8341 36.1084 12.5106Z" fill="white"/>
</svg>
