<svg width="25" height="17" viewBox="0 0 25 17" fill="none" xmlns="http://www.w3.org/2000/svg">
<path d="M13.7622 7.93031L13.7642 8.40244C13.7642 10.3646 13.6493 12.1535 13.4762 13.3196L13.3246 14.0448C13.2402 14.4289 13.1293 14.8662 13.0137 15.0894C12.5904 15.906 11.7628 16.4113 10.877 16.4113L10.7999 16.4113C10.2225 16.3922 9.00938 15.8855 9.00938 15.8678C7.0574 15.0488 3.29155 12.577 1.55227 10.8147L1.04684 10.2857C0.914488 10.1423 0.765792 9.97258 0.673478 9.8403C0.365117 9.432 0.210938 8.92677 0.210938 8.42153C0.210938 7.85755 0.384028 7.33323 0.711297 6.90437L1.23057 6.34396L1.34692 6.22436C2.92509 4.51333 7.04576 1.71546 9.20138 0.859207L9.52683 0.734481C9.91846 0.594105 10.4672 0.426675 10.7999 0.411254C11.2232 0.411254 11.6275 0.509656 12.013 0.703524C12.4944 0.975233 12.8784 1.40409 13.0908 1.90933C13.2261 2.25888 13.4384 3.309 13.4384 3.32809C13.6331 4.38691 13.746 6.05768 13.7622 7.93031ZM24.2109 8.41184C24.2109 9.52952 23.3135 10.4357 22.2066 10.4357L17.2743 9.9995C16.4059 9.9995 15.7019 9.28865 15.7019 8.41184C15.7019 7.53356 16.4059 6.82418 17.2743 6.82418L22.2066 6.38798C23.3135 6.38798 24.2109 7.29416 24.2109 8.41184Z" fill="#FCFBFF"/>
</svg>
