<svg width="1440" height="453" viewBox="0 0 1440 453" fill="none" xmlns="http://www.w3.org/2000/svg">
<g filter="url(#filter0_i_110_112)">
<path fill-rule="evenodd" clip-rule="evenodd" d="M-1.45752 0.487605C84.0749 12.627 175.784 20.5937 257.095 25.8089C338.984 31.0599 410.326 33.5215 454.207 34.6495C469.436 35.0001 484.664 35.3024 499.892 35.5565H500.348L503.408 35.6098C547.208 36.3719 591.017 37.0045 634.826 37.256C689.254 37.5684 743.692 37.8504 798.111 37.3931C863.196 36.8444 928.269 35.8587 993.329 34.4361H994.076C1033.33 33.3539 1090.87 31.2885 1156.96 27.4017C1244.31 22.2591 1346.61 13.9312 1441.33 0.486863V453H-1.45752V0.487605Z" fill="url(#paint0_linear_110_112)"/>
</g>
<defs>
<filter id="filter0_i_110_112" x="-1.45752" y="0.486816" width="1442.79" height="460.513" filterUnits="userSpaceOnUse" color-interpolation-filters="sRGB">
<feFlood flood-opacity="0" result="BackgroundImageFix"/>
<feBlend mode="normal" in="SourceGraphic" in2="BackgroundImageFix" result="shape"/>
<feColorMatrix in="SourceAlpha" type="matrix" values="0 0 0 0 0 0 0 0 0 0 0 0 0 0 0 0 0 0 127 0" result="hardAlpha"/>
<feOffset dy="8"/>
<feGaussianBlur stdDeviation="7"/>
<feComposite in2="hardAlpha" operator="arithmetic" k2="-1" k3="1"/>
<feColorMatrix type="matrix" values="0 0 0 0 0 0 0 0 0 0 0 0 0 0 0 0 0 0 0.25 0"/>
<feBlend mode="normal" in2="shape" result="effect1_innerShadow_110_112"/>
</filter>
<linearGradient id="paint0_linear_110_112" x1="719.938" y1="0.486816" x2="719.938" y2="453" gradientUnits="userSpaceOnUse">
<stop stop-color="#173D53"/>
<stop offset="1" stop-color="#4FBDBA"/>
</linearGradient>
</defs>
</svg>
