<svg width="448" height="425" viewBox="0 0 448 425" fill="none" xmlns="http://www.w3.org/2000/svg">
<path d="M68.1767 390.249C47.014 369.086 30.2269 343.963 18.7737 316.312C7.32059 288.662 1.42575 259.026 1.42578 229.098C1.42581 199.169 7.32071 169.534 18.7739 141.884C30.2271 114.233 47.0143 89.1095 68.177 67.9469C89.3397 46.7843 114.463 29.9972 142.114 18.5442C169.764 7.09109 199.4 1.19632 229.328 1.19641C259.257 1.1965 288.892 7.09146 316.542 18.5447C344.193 29.998 369.316 46.7852 390.479 67.9479" stroke="black" stroke-linecap="round" stroke-dasharray="2 4 6 8"/>
<circle cx="229.329" cy="229.097" r="182.973" stroke="#1C495C" stroke-width="25"/>
<path d="M378.05 229.097C378.05 204.639 372.018 180.56 360.489 158.99C348.96 137.421 332.29 119.028 311.954 105.44C291.619 91.8523 268.246 83.4895 243.907 81.0922C219.567 78.695 195.012 82.3374 172.417 91.6968C149.821 101.056 129.882 115.844 114.367 134.749C98.8514 153.655 88.2379 176.095 83.4665 200.083C78.6951 224.07 79.9132 248.864 87.0127 272.268C94.1123 295.672 106.874 316.964 124.168 334.258L229.329 229.097H378.05Z" fill="#48AEAE"/>
<path d="M232.05 381.526C232.181 381.061 232.688 380.073 232.485 379.928C230.092 377.333 227.438 374.991 224.564 372.941C219.762 370.036 214.569 367.726 209.781 365.286C209.535 359.999 208.331 358.575 203.659 357.18C202.043 356.792 200.547 356.008 199.307 354.9C198.339 353.949 197.145 353.262 195.837 352.903C194.53 352.545 193.152 352.527 191.836 352.852C186.845 353.622 182.275 349.947 180.462 345.182C179.737 343.279 178.823 341.464 178.112 339.561C177.082 337.221 176.275 334.789 175.703 332.298C175.37 330.25 175.065 328.753 172.802 327.94C171.627 327.504 170.742 326.269 169.32 325.035L173.411 322.507L166.549 319.254C166.665 319.689 166.23 319.036 166.404 318.629C168.363 313.937 165.606 311.177 162.618 308.214C160.032 305.481 157.642 302.569 155.466 299.498C155.045 298.656 154.841 297.723 154.871 296.782C154.479 292.787 152.796 291.93 149.199 293.979C147.037 295.213 144.933 296.521 142.235 298.133C141.8 292.497 136.2 295.039 133.676 292.323C132.499 291.185 131.177 290.208 129.744 289.417C129.485 289.25 129.193 289.14 128.887 289.095C128.582 289.05 128.271 289.071 127.974 289.156C127.626 289.388 127.554 290.318 127.641 290.899C127.916 292.991 128.322 295.068 128.525 296.245C125.537 297.479 123.578 298.438 121.533 299.15C118.486 300.152 117.616 297.595 117.253 295.693C116.702 292.787 115.28 291.407 112.974 289.592C110.406 287.558 107.026 284.827 108.346 280.121C108.926 278.058 108.433 275.763 108.433 273.134H100.947C101.556 267.977 101.165 262.85 102.905 258.608C105.125 253.219 103.138 249.805 100.251 245.898C98.2051 243.109 96.8559 239.812 94.9264 236.936C94.2011 235.846 92.4457 234.393 91.6187 234.64C88.5287 235.556 86.9619 233.536 85.1194 231.997C82.9288 230.181 80.9413 228.133 78.6927 226.404C75.2109 223.688 71.5551 221.233 65.636 222.482C66.3904 219.911 66.9127 218.125 67.3914 216.425C67.58 215.757 67.9717 214.827 67.6816 214.435C66.0132 212.198 64.1563 210.077 62.4154 207.913C62.1543 207.593 62.2123 207.027 62.0237 206.62C61.7045 205.923 61.2403 204.63 60.9647 204.674C56.4239 205.269 56.3513 200.969 54.4073 198.776C53.3483 197.599 52.4924 196.249 51.3173 194.651C52.0452 193.581 52.6579 192.436 53.1452 191.237C53.9286 188.986 55.9451 186.531 52.4634 184.57C52.1152 184.366 52.3618 182.827 52.5504 181.955C52.8386 180.962 53.1974 179.992 53.6239 179.05H55.9741C56.9316 176.145 57.6135 173.458 58.6725 170.974C59.4547 169.406 60.4294 167.942 61.574 166.616C61.9943 166.113 62.5633 165.757 63.1988 165.599C67.8702 164.495 68.7406 161.663 65.9262 157.682C64.8206 155.997 64.1616 154.057 64.0112 152.046C63.8226 149.824 64.9687 148.299 67.6961 148.4C68.6101 148.4 69.5675 147.369 70.496 146.817L70.3219 145.466C67.3636 145.23 64.3933 145.181 61.4289 145.321C59.572 145.524 58.5274 145.553 57.3523 143.767C55.713 141.268 53.3628 139.409 49.7215 140.862C48.9236 136.969 48.1837 133.323 47.4438 129.691C42.6564 128.631 42.874 128.544 42.6128 123.285C42.5258 121.528 40.6108 119.857 39.073 117.475C39.5113 116.381 39.6073 115.181 39.3482 114.031C39.0891 112.882 38.4872 111.839 37.6223 111.04C36.5923 109.907 37.4482 107.06 37.4482 104.532C32.8494 102.746 32.3416 98.5477 32.6608 93.943C32.6608 93.4055 32.6608 92.4904 32.3706 92.3306C30.0204 90.878 27.5977 89.4981 24.6527 87.784C25.4361 86.0555 26.3646 83.9492 27.3076 81.8575L30.209 75.5097C26.6402 75.2046 26.5822 73.0112 26.2921 70.3385C25.966 66.6582 25.4478 62.9975 24.7398 59.3715C23.7823 54.9266 21.4466 50.8738 21.0259 45.7752C22.21 45.613 23.4106 45.613 24.5947 45.7752C28.3086 46.9664 29.1355 45.1507 29.3821 41.8969C29.5707 39.3984 29.5707 36.4787 32.9074 35.5927C34.3316 36.3251 35.6864 37.1856 36.955 38.1637C38.2347 39.4543 39.3997 40.8541 40.4367 42.3472C42.961 45.5864 44.1216 49.9442 48.5464 51.6147C49.0554 51.8884 49.5025 52.2645 49.8595 52.7195C50.2165 53.1744 50.4757 53.6984 50.6209 54.2584C51.3463 57.0619 53.4208 57.8898 55.8146 58.4128C58.8031 59.0809 61.8061 59.8653 64.8526 60.2139C66.5754 60.3068 68.303 60.2045 70.0028 59.9089C70.6846 59.8363 71.5696 59.1245 72.0048 59.3715C77.1549 62.1314 78.388 57.0764 81.1154 55.0137C82.2889 54.17 83.5095 53.3941 84.7713 52.6896C85.2645 52.3845 85.9464 52.2248 86.222 51.8035C90.4436 45.5138 97.8279 43.2332 103.297 38.614C103.743 38.2157 104.265 37.9134 104.832 37.726C105.399 37.5385 105.999 37.4699 106.593 37.5244C107.188 37.5789 107.765 37.7554 108.289 38.0428C108.812 38.3302 109.271 38.7224 109.637 39.195C111.552 41.4901 113.612 43.6545 115.44 45.7172C115.063 46.3708 115.034 46.5161 114.947 46.5742C110.13 49.4794 110.174 49.4794 113.83 53.9388C115.179 55.5948 115.541 57.178 112.814 57.9043C112.115 58.0296 111.437 58.2495 110.797 58.558C109.825 59.1391 108.389 59.7636 108.23 60.5771C108.07 61.3905 109.245 62.48 110.014 63.2644C113.394 66.6634 117.993 68.6971 120.692 72.9386C121.127 73.6358 123.172 73.7666 124.289 73.4616C126.523 72.8805 127.437 72.3866 127.626 75.7276C127.96 81.32 128.467 87.3483 130.687 92.2871C133.966 99.6807 141.698 100.175 148.72 100.494C153.203 100.698 156.075 101.845 157.874 105.999C159.977 110.822 164.634 112.739 168.392 115.703C175.645 121.513 184.8 122.036 193.315 124.215C195.072 124.52 196.875 124.411 198.582 123.895C206.387 121.963 214.104 119.668 221.953 117.911C226.817 116.904 231.733 116.167 236.678 115.703C239.855 115.354 241.03 113.931 240.073 110.749C239.884 110.067 239.623 109.399 239.434 108.716C237.984 103.704 237.984 103.85 243.235 104.111C244.992 103.992 246.715 103.57 248.327 102.862C250.498 102.34 252.595 101.544 254.566 100.494C256.086 99.5536 257.184 98.0592 257.627 96.3252C257.687 95.1504 258.031 94.0077 258.63 92.9956C259.229 91.9834 260.065 91.1322 261.065 90.5149C263.966 88.7137 266.752 86.7963 269.45 84.7046C273.062 82.0027 276.95 81.8866 281.187 82.6709C283.925 83.107 286.701 83.253 289.47 83.1067C290.123 83.1067 290.616 81.6541 291.356 81.0441C292.807 79.9256 294.374 78.1389 295.941 78.1389C299.022 78.2755 302.085 78.6838 305.095 79.3591C305.865 79.5659 306.667 79.625 307.459 79.5334C308.635 79.2138 310.52 77.9645 310.709 78.197C311.986 79.8384 313.727 81.7558 313.756 83.6006C313.756 86.2298 315.206 86.5058 316.889 86.9851C321.038 88.2053 325.231 89.2366 329.293 90.6456C330.744 91.125 331.614 92.7373 332.934 93.5508C334.255 94.3642 336.329 95.7587 337.577 95.3811C343.597 93.5072 348.733 94.5385 354.202 97.6616C357.104 99.3175 358.409 100.407 358.845 103.835C359.106 105.782 362.08 108.469 364.198 108.876C371.277 110.241 374.89 115.151 378.415 120.496C378.815 121.066 379.326 121.548 379.917 121.915C380.507 122.282 381.166 122.526 381.853 122.632C386.205 122.879 390.659 122.864 395.055 122.632C398.102 122.501 398.609 123.91 398.435 126.554C398.397 129.096 398.518 131.638 398.798 134.165C398.798 134.63 399.073 135.08 399.117 135.545C399.61 140.992 400.104 146.425 400.568 151.858C400.581 152.803 400.388 153.74 400.002 154.603C398.392 157.816 397.407 161.306 397.101 164.887C397.164 168.008 396.39 171.088 394.859 173.807C393.328 176.526 391.096 178.783 388.396 180.343C389.455 181.97 390.427 183.422 391.472 185.006C389.817 185.31 388.202 185.797 386.655 186.458C382.724 188.71 383.318 192.588 383.551 196.278C383.688 197.654 383.688 199.041 383.551 200.418C383.086 203.817 384.203 205.255 387.656 205.545C389.223 205.676 390.775 205.966 392.705 206.228C390.219 209.118 387.941 212.181 385.886 215.394C385.061 217.309 384.897 219.446 385.422 221.465C386.467 226.085 388.324 230.53 389.237 235.163C389.771 238.618 390.013 242.112 389.963 245.607C390.079 249.166 389.876 252.754 389.963 256.313C390.093 259.029 391.675 260.337 394.489 260.671C398.725 261.092 402.903 261.92 407.111 262.501C409.243 262.792 410.505 263.518 410.665 266.016C410.824 268.515 411.942 270.694 412.116 273.061C412.449 278.61 407.676 281.428 404.862 285.176C400.974 290.376 396.433 295.083 392.342 300.152C392.091 300.653 391.968 301.208 391.983 301.768C391.998 302.328 392.152 302.876 392.429 303.362C395.113 306.805 398.421 309.826 400.829 313.429C402.938 316.892 404.72 320.544 406.153 324.338C407.516 327.818 409.751 330.889 412.642 333.255C415.534 335.621 418.984 337.202 422.662 337.847C424.026 338.075 425.285 338.725 426.26 339.706C427.711 341.507 428.741 343.541 431.657 342.321C431.86 342.233 433.108 343.584 433.108 344.325C433.354 346.998 433.311 349.685 433.325 352.372C433.325 357.311 433.325 362.25 433.325 367.77C435.429 367.683 437.257 367.479 439.128 367.552C440.808 367.429 442.494 367.687 444.061 368.307C446.106 369.513 443.887 370.806 443.626 372.113C442.958 375.352 442.697 378.664 442.378 381.163C436.357 382.368 431.077 383.385 425.825 384.504C424.94 384.692 423.62 385.07 423.359 385.709C421.778 389.704 417.744 389.835 414.727 391.52C413.671 392.01 412.811 392.845 412.29 393.887C411.028 397.94 409.998 402.08 409.04 406.234C408.577 408.129 408.396 410.082 408.503 412.03C408.735 415.545 406.675 417.913 404.456 419.932C403.658 420.658 401.395 420.106 399.929 419.685C396.897 418.814 393.967 417.535 390.949 416.62C388.614 415.909 385.944 415.923 385.262 412.713C385.161 412.277 383.565 411.711 382.985 411.958C382.405 412.204 381.781 413.41 381.273 414.006C378.023 414.006 374.295 414.151 370.596 414.006C367.912 414.082 365.24 413.628 362.733 412.669C359.57 411.1 356.784 411.987 353.781 412.451C352.635 412.626 350.88 412.698 350.3 412.03C346.31 407.324 340.957 407.876 335.894 408.399C332.746 408.718 329.859 409.851 327.741 406.496C327.64 406.352 327.508 406.233 327.355 406.147C327.202 406.062 327.031 406.012 326.856 406.002C323.403 406.554 320.661 404.041 317.208 403.954C313.756 403.867 310.216 398.899 310.346 395.078C310.346 394.614 310.651 394.047 310.477 393.699C308.917 390.173 308.131 386.354 308.17 382.499C307.967 377.894 304.993 374.51 302.367 371.082C302.013 370.608 301.496 370.282 300.917 370.167C296.855 369.862 292.676 368.961 288.759 369.615C285.524 370.152 282.594 372.52 279.272 374.234C283.073 377.851 286.612 371.518 290.08 374.234C288.556 375.89 287.178 377.691 285.437 379.231C283.696 380.77 282.536 382.223 279.939 380.959C279.083 380.538 277.531 381.424 276.341 381.845C274.339 382.543 272.395 383.429 270.379 384.053C269.856 384.213 269.116 383.705 267.579 383.24C271.278 381.628 274.049 380.495 276.747 379.216C280.519 377.444 280.49 377.401 277.212 373.144C276.532 374.439 275.735 375.669 274.832 376.819C273.889 377.822 272.323 379.42 271.525 379.173C268.028 378.083 265.968 380.32 263.575 381.889C262.089 383.066 260.507 384.115 258.845 385.027C257.476 385.641 255.934 385.749 254.493 385.332C252.114 384.329 250.141 382.267 247.704 381.468C244.874 380.657 241.942 380.26 238.999 380.291C236.65 380.492 234.324 380.905 232.05 381.526V381.526Z" fill="#231F20"/>
<path d="M234.966 381.439C235.097 380.974 235.605 379.986 235.402 379.841C233.014 377.226 230.359 374.87 227.48 372.81C222.679 369.905 217.485 367.596 212.697 365.155C212.451 359.853 211.247 358.444 206.575 357.05C204.96 356.658 203.466 355.875 202.223 354.769C201.256 353.818 200.061 353.131 198.753 352.772C197.446 352.414 196.068 352.396 194.752 352.721C189.761 353.491 185.192 349.816 183.378 345.051C182.653 343.149 181.739 341.333 181.028 339.43C179.998 337.091 179.191 334.659 178.62 332.167C178.286 330.119 177.981 328.623 175.718 327.809C174.543 327.388 173.658 326.153 172.236 324.904L176.327 322.377L169.465 319.123C169.582 319.559 169.161 318.905 169.32 318.484C171.279 313.806 168.523 311.046 165.534 308.069C162.944 305.339 160.554 302.426 158.382 299.353C157.958 298.512 157.754 297.578 157.787 296.637C157.395 292.657 155.713 291.8 152.115 293.848C149.953 295.068 147.85 296.39 145.151 297.988C144.716 292.366 139.116 294.908 136.592 292.177C135.415 291.039 134.093 290.062 132.66 289.272C132.403 289.101 132.11 288.989 131.804 288.944C131.499 288.898 131.186 288.921 130.89 289.011C130.542 289.243 130.47 290.173 130.557 290.754C130.847 292.846 131.239 294.923 131.442 296.099C128.468 297.334 126.495 298.278 124.449 299.004C121.403 300.007 120.532 297.45 120.097 295.533C119.546 292.628 118.124 291.175 115.817 289.432C113.249 287.398 109.869 284.667 111.189 279.976C111.77 277.898 111.276 275.531 111.276 272.989H103.849C104.458 267.832 104.066 262.704 105.807 258.463C108.027 253.074 106.039 249.66 103.152 245.753C101.107 242.964 99.7576 239.666 97.8281 236.79C97.1027 235.701 95.3473 234.248 94.5204 234.495C91.4303 235.41 89.8635 233.391 88.0211 231.851C85.845 230.036 83.843 227.988 81.5943 226.244C78.1126 223.543 74.4567 221.088 68.5377 222.337C69.2921 219.766 69.8143 217.979 70.2931 216.265C70.4817 215.612 70.8734 214.667 70.5832 214.29C68.9149 212.053 67.0579 209.932 65.3171 207.768C65.0559 207.448 65.114 206.882 64.9254 206.475C64.6062 205.778 64.142 204.485 63.8663 204.514C59.3255 205.124 59.253 200.81 57.309 198.631C56.2499 197.454 55.394 196.103 54.2189 194.505C54.9399 193.48 55.5571 192.385 56.0613 191.237C56.8447 188.986 58.8613 186.531 55.3795 184.57C55.0313 184.366 55.278 182.827 55.4666 181.955C55.7548 180.962 56.1135 179.992 56.5401 179.05H58.8758C59.8333 176.145 60.5151 173.458 61.5742 170.974C62.3606 169.408 63.3349 167.945 64.4756 166.616C64.8933 166.113 65.464 165.761 66.1005 165.614C70.7863 164.51 71.6423 161.677 68.8278 157.697C67.7285 156.008 67.07 154.07 66.9129 152.061C66.7243 149.824 67.8704 148.313 70.5977 148.415C71.5117 148.415 72.4692 147.384 73.3977 146.832L73.2236 145.481C70.2656 145.237 67.2949 145.188 64.3306 145.335C62.4736 145.524 61.4291 145.568 60.254 143.767C58.6146 141.283 56.2645 139.409 52.6231 140.862C51.8252 136.969 51.0853 133.323 50.3454 129.691C45.558 128.631 45.7756 128.544 45.5145 123.285C45.4274 121.528 43.5125 119.857 41.9747 117.475C42.4044 116.374 42.4887 115.169 42.2166 114.019C41.9444 112.87 41.3287 111.83 40.4514 111.04C39.4214 109.907 40.2773 107.06 40.2773 104.532C35.6785 102.746 35.1707 98.5477 35.4899 93.943C35.4899 93.391 35.4899 92.4904 35.1997 92.3161C32.8496 90.8635 30.4268 89.4836 27.4818 87.784C28.2652 86.0555 29.1937 83.9492 30.1367 81.8575L33.0382 75.5097C29.4693 75.1901 29.4113 73.0112 29.1212 70.3385C28.7951 66.6582 28.2769 62.9975 27.5689 59.3715C26.6114 54.9266 24.2757 50.8738 23.855 45.7752C25.0391 45.613 26.2397 45.613 27.4238 45.7752C31.1377 46.9664 31.9646 45.1507 32.2112 41.8969C32.3998 39.3984 32.3998 36.4787 35.7365 35.5927C37.1623 36.3167 38.5174 37.1725 39.7841 38.1492C41.0605 39.448 42.2252 40.8523 43.2658 42.3472C45.7901 45.5864 46.9507 49.9442 51.3755 51.6001C51.8831 51.8814 52.3293 52.2615 52.6881 52.718C53.0469 53.1745 53.3108 53.6983 53.4645 54.2584C54.1754 57.0619 56.2644 57.8898 58.6437 58.4128C61.6322 59.0809 64.6352 59.8653 67.6818 60.2139C69.4045 60.3068 71.1321 60.2045 72.8319 59.9089C73.5282 59.8363 74.3987 59.1245 74.8339 59.3569C79.984 62.1314 81.2171 57.0618 83.9445 54.9992C85.118 54.1555 86.3386 53.3795 87.6004 52.675C88.0936 52.37 88.7755 52.2102 89.0511 51.789C93.2728 45.4993 100.657 43.2187 106.126 38.5995C106.572 38.2012 107.094 37.8989 107.661 37.7115C108.228 37.524 108.828 37.4554 109.422 37.5099C110.017 37.5644 110.594 37.7408 111.118 38.0282C111.641 38.3157 112.1 38.7079 112.466 39.1805C114.381 41.4611 116.441 43.6399 118.269 45.6881C117.892 46.3563 117.863 46.5015 117.776 46.5597C112.974 49.4648 113.003 49.4648 116.659 53.9243C118.008 55.5657 118.371 57.1636 115.643 57.8898C114.944 58.0151 114.266 58.235 113.627 58.5435C112.655 59.11 111.218 59.7491 111.059 60.5626C110.899 61.376 112.074 62.4655 112.843 63.2353C116.223 66.6489 120.822 68.668 123.521 72.9241C123.97 73.6213 126.001 73.7375 127.118 73.447C129.353 72.8515 130.267 72.3721 130.455 75.7131C130.789 81.3055 131.297 87.2611 133.516 92.2725C136.795 99.6516 144.527 100.16 151.549 100.48C156.032 100.683 158.904 101.831 160.703 105.985C162.807 110.808 167.463 112.725 171.221 115.688C178.475 121.499 187.629 122.007 196.145 124.186C197.9 124.496 199.703 124.392 201.411 123.881C209.216 121.934 216.948 119.654 224.782 117.896C229.675 116.891 234.62 116.159 239.594 115.703C242.771 115.354 243.946 113.916 242.989 110.749C242.8 110.067 242.539 109.398 242.351 108.701C240.972 103.704 240.972 103.835 246.151 104.111C247.908 103.992 249.631 103.57 251.244 102.862C253.416 102.343 255.512 101.547 257.482 100.494C258.999 99.5502 260.096 98.0572 260.543 96.3252C260.603 95.1504 260.947 94.0077 261.546 92.9956C262.145 91.9834 262.981 91.1322 263.981 90.5149C266.883 88.7137 269.668 86.7963 272.366 84.7046C275.979 82.0027 279.867 81.8865 284.103 82.6564C286.841 83.0925 289.618 83.2385 292.386 83.0922C293.039 83.0922 293.533 81.6396 294.272 81.0295C295.723 79.9256 297.29 78.197 298.857 78.1243C301.938 78.261 305.001 78.6693 308.011 79.3445C308.786 79.5545 309.594 79.6088 310.39 79.5043C311.551 79.1992 313.437 77.9355 313.625 78.1679C314.902 79.8239 316.643 81.7413 316.672 83.5861C316.672 86.2007 318.123 86.4912 319.82 86.9706C323.955 88.1762 328.147 89.2076 332.209 90.6311C333.587 91.1104 334.53 92.7228 335.851 93.5363C337.171 94.3497 339.245 95.7587 340.507 95.3665C346.514 93.5072 351.649 94.5385 357.118 97.6616C360.02 99.3175 361.326 100.407 361.761 103.821C362.022 105.767 364.996 108.454 367.114 108.876C374.194 110.226 377.806 115.151 381.331 120.496C381.731 121.066 382.242 121.548 382.833 121.915C383.424 122.282 384.082 122.526 384.769 122.632C389.122 122.879 393.575 122.864 397.971 122.632C401.018 122.501 401.525 123.91 401.351 126.554C401.313 129.096 401.434 131.638 401.714 134.165C401.714 134.63 401.99 135.08 402.033 135.545C402.526 140.978 403.034 146.41 403.484 151.858C403.504 152.804 403.311 153.742 402.918 154.603C401.583 157.915 400.191 161.023 400.089 164.887C400.153 168.008 399.379 171.088 397.848 173.807C396.317 176.526 394.085 178.783 391.385 180.343C392.444 181.97 393.416 183.422 394.46 185.006C392.805 185.303 391.189 185.791 389.644 186.458C385.727 188.71 386.307 192.574 386.539 196.278C386.677 197.649 386.677 199.031 386.539 200.403C386.09 203.817 387.192 205.255 390.645 205.545C392.212 205.676 393.764 205.966 395.693 206.228C393.212 209.116 390.933 212.174 388.875 215.379C388.049 217.3 387.886 219.441 388.411 221.465C389.455 226.085 391.312 230.53 392.226 235.163C392.76 238.618 393.003 242.112 392.952 245.607C393.068 249.166 392.865 252.74 393.024 256.313C393.155 259.029 394.736 260.337 397.55 260.671C401.787 261.092 405.965 261.92 410.172 262.501C412.304 262.777 413.567 263.518 413.726 266.016C413.886 268.515 415.003 270.694 415.177 273.061C415.511 278.61 410.738 281.414 407.923 285.176C404.021 290.376 399.48 295.083 395.389 300.152C395.138 300.653 395.015 301.208 395.03 301.768C395.045 302.328 395.198 302.876 395.476 303.362C398.16 306.805 401.467 309.812 403.876 313.429C405.985 316.892 407.767 320.544 409.2 324.338C410.541 327.826 412.756 330.911 415.632 333.294C418.509 335.678 421.949 337.281 425.622 337.948C426.988 338.171 428.248 338.822 429.22 339.808C430.671 341.594 431.701 343.642 434.617 342.422C434.82 342.335 436.068 343.686 436.068 344.427C436.314 347.085 436.271 349.787 436.285 352.474C436.285 357.398 436.285 362.337 436.285 367.872C438.389 367.784 440.217 367.581 442.088 367.654C443.768 367.523 445.456 367.782 447.021 368.409C449.066 369.615 446.847 370.907 446.585 372.215C445.918 375.44 445.657 378.751 445.338 381.264C439.317 382.47 434.036 383.487 428.785 384.605C427.9 384.794 426.58 385.172 426.319 385.811C424.737 389.806 420.704 389.936 417.687 391.621C416.635 392.111 415.776 392.94 415.249 393.975C413.987 398.042 412.957 402.182 412 406.321C411.528 408.186 411.328 410.108 411.405 412.03C411.637 415.545 409.577 417.913 407.357 419.932C406.559 420.658 404.296 420.106 402.831 419.685C399.799 418.814 396.869 417.535 393.851 416.62C391.515 415.909 388.846 415.923 388.164 412.713C388.063 412.277 386.467 411.711 385.887 411.958C385.306 412.204 384.682 413.337 384.175 413.991C380.925 413.991 377.197 414.151 373.497 413.991C370.814 414.06 368.144 413.606 365.634 412.655C362.472 411.086 359.686 411.972 356.683 412.437C355.537 412.611 353.782 412.669 353.201 412.001C349.212 407.309 343.859 407.861 338.796 408.37C335.662 408.689 332.76 409.822 330.642 406.481C330.544 406.335 330.413 406.214 330.259 406.128C330.105 406.042 329.933 405.994 329.757 405.987C326.305 406.525 323.563 404.026 320.11 403.939C316.657 403.852 313.118 398.884 313.248 395.064C313.248 394.585 313.553 394.033 313.379 393.611C311.818 390.087 311.031 386.267 311.072 382.412C310.869 377.807 307.909 374.437 305.269 371.009C304.915 370.535 304.398 370.209 303.818 370.094C299.756 369.789 295.578 368.888 291.661 369.542C288.426 370.079 285.495 372.447 282.173 374.161C285.989 377.778 289.514 371.445 292.981 374.161C291.458 375.832 290.08 377.633 288.339 379.173C286.598 380.712 285.437 382.165 282.841 380.887C281.985 380.48 280.432 381.366 279.243 381.773C277.241 382.485 275.297 383.356 273.28 383.981C272.758 384.155 272.018 383.647 270.48 383.182C274.18 381.569 276.951 380.436 279.649 379.158C283.421 377.386 283.392 377.342 280.113 373.086C279.434 374.381 278.637 375.611 277.734 376.761C276.791 377.764 275.224 379.361 274.426 379.115C270.93 378.025 268.87 380.262 266.476 381.831C264.994 383.008 263.411 384.053 261.747 384.954C260.379 385.574 258.835 385.683 257.395 385.259C255.015 384.271 253.042 382.194 250.605 381.41C247.779 380.584 244.845 380.188 241.901 380.233C239.557 380.418 237.235 380.821 234.966 381.439V381.439Z" fill="#F3D5C0"/>
</svg>
