<svg xmlns="http://www.w3.org/2000/svg" width="1440" height="599" fill="none" xmlns:v="https://vecta.io/nano"><g filter="url(#A)"><path d="M1440.05 479.578c-176.03 25.075-353.59 40.934-531.756 47.495-44.314.07-87.817 10.48-126.084 30.171-20.364 10.587-38.872 23.726-54.944 39.006-.926.868-2.043 1.56-3.284 2.033a11.05 11.05 0 0 1-3.929.717c-1.352 0-2.689-.244-3.93-.717a10 10 0 0 1-3.283-2.033c-16.072-15.28-34.581-28.419-54.944-39.006-38.267-19.691-81.77-30.101-126.085-30.171l17.421.619-17.056-.619h-.365C353.65 520.505 176.086 504.646.053 479.578V.292c238.067 33.924 478.839 50.965 720 50.96 241.16.001 481.927-17.04 719.997-50.96v478.024" fill="url(#B)"/></g><defs><filter id="A" x=".053" y=".292" width="1440" height="609.708" filterUnits="userSpaceOnUse" color-interpolation-filters="sRGB"><feFlood flood-opacity="0"/><feBlend in="SourceGraphic" result="B"/><feColorMatrix in="SourceAlpha" values="0 0 0 0 0 0 0 0 0 0 0 0 0 0 0 0 0 0 127 0" result="C"/><feOffset dy="11"/><feGaussianBlur stdDeviation="11"/><feComposite in2="C" operator="arithmetic" k2="-1" k3="1"/><feColorMatrix values="0 0 0 0 0 0 0 0 0 0 0 0 0 0 0 0 0 0 0.25 0"/><feBlend in2="B"/></filter><linearGradient id="B" x1="1411.66" y1="-21.475" x2="-29.945" y2="657.934" gradientUnits="userSpaceOnUse"><stop stop-color="#4fbdba"/><stop offset="1" stop-color="#123149"/></linearGradient></defs></svg>